<!-- Generated by IcoMoon.io -->
<svg version="1.1" xmlns="http://www.w3.org/2000/svg" width="30" height="32" viewBox="0 0 30 32">
<title>in</title>
<path d="M6.584 30.255h-6.098v-19.761h6.098v19.761zM3.532 7.798c-1.95 0-3.532-1.625-3.532-3.588s1.582-3.554 3.532-3.554c1.95 0 3.532 1.592 3.532 3.554s-1.582 3.588-3.532 3.588zM29.408 30.255h-6.085v-9.62c0-2.293-0.046-5.233-3.171-5.233-3.171 0-3.656 2.491-3.656 5.067v9.785h-6.092v-19.761h5.849v2.696h0.085c0.814-1.553 2.803-3.191 5.77-3.191 6.171 0 7.306 4.090 7.306 9.402v10.855h-0.006z"></path>
</svg>
