<!-- Generated by IcoMoon.io -->
<svg version="1.1" xmlns="http://www.w3.org/2000/svg" width="26" height="32" viewBox="0 0 26 32">
<title>q</title>
<path d="M14.059 0.574c-6.533 0-12.99 4.056-12.99 10.621 0 4.175 2.522 6.547 4.050 6.547 0.63 0 0.993-1.637 0.993-2.099 0-0.552-1.509-1.726-1.509-4.021 0-4.768 3.897-8.148 8.94-8.148 4.336 0 7.545 2.295 7.545 6.512 0 3.149-1.356 9.056-5.75 9.056-1.585 0-2.942-1.067-2.942-2.597 0-2.242 1.681-4.412 1.681-6.725 0-3.926-5.979-3.214-5.979 1.53 0 0.996 0.134 2.099 0.611 3.007-0.879 3.523-2.674 8.771-2.674 12.4 0 1.121 0.172 2.224 0.287 3.345 0.216 0.225 0.108 0.202 0.439 0.089 3.209-4.092 3.095-4.893 4.546-10.248 0.783 1.388 2.808 2.135 4.413 2.135 6.762 0 9.8-6.138 9.8-11.671 0-5.889-5.463-9.732-11.461-9.732z"></path>
</svg>
