<!-- Generated by IcoMoon.io -->
<svg version="1.1" xmlns="http://www.w3.org/2000/svg" width="39" height="32" viewBox="0 0 39 32">
<title>tw</title>
<path d="M34.377 7.987c0.023 0.322 0.023 0.643 0.023 0.965 0 9.813-7.582 21.119-21.441 21.119-4.27 0-8.236-1.218-11.572-3.332 0.607 0.069 1.19 0.092 1.82 0.092 3.523 0 6.766-1.172 9.355-3.171-3.313-0.069-6.089-2.206-7.046-5.148 0.467 0.069 0.933 0.115 1.423 0.115 0.677 0 1.353-0.092 1.983-0.253-3.453-0.689-6.043-3.677-6.043-7.285v-0.092c1.003 0.552 2.17 0.896 3.406 0.942-2.030-1.333-3.36-3.608-3.36-6.182 0-1.379 0.373-2.643 1.026-3.746 3.71 4.504 9.286 7.446 15.538 7.767-0.117-0.552-0.187-1.126-0.187-1.7 0-4.091 3.36-7.423 7.536-7.423 2.17 0 4.129 0.896 5.506 2.344 1.703-0.322 3.336-0.942 4.783-1.792-0.56 1.724-1.75 3.171-3.313 4.090 1.517-0.161 2.986-0.574 4.339-1.149-1.026 1.471-2.309 2.78-3.779 3.838z"></path>
</svg>
